<mxfile host="app.diagrams.net" agent="Mozilla/5.0 (Macintosh; Intel Mac OS X 10_15_7) AppleWebKit/537.36 (KHTML, like Gecko) Chrome/128.0.0.0 Safari/537.36" version="24.7.10">
  <diagram id="jUVGGn643EkCKu4Ar-uG" name="Page-1">
    <mxGraphModel grid="1" page="1" gridSize="10" guides="1" tooltips="1" connect="1" arrows="1" fold="1" pageScale="1" pageWidth="850" pageHeight="1100" math="0" shadow="0">
      <root>
        <mxCell id="0" />
        <mxCell id="1" parent="0" />
        <mxCell id="xB8ox5cRuTqFbaY90IJn-1" value="&lt;font style=&quot;font-size: 21px;&quot;&gt;SUM / 9&lt;/font&gt;" style="rounded=0;whiteSpace=wrap;html=1;fillColor=#f5f5f5;fontColor=#333333;strokeColor=#666666;" vertex="1" parent="1">
          <mxGeometry x="305" y="193" width="250" height="57" as="geometry" />
        </mxCell>
        <mxCell id="xB8ox5cRuTqFbaY90IJn-2" value="BERT Base" style="rounded=1;whiteSpace=wrap;html=1;fontSize=19;fillColor=#fad7ac;strokeColor=#b46504;strokeWidth=2;" vertex="1" parent="1">
          <mxGeometry x="50" y="40" width="120" height="60" as="geometry" />
        </mxCell>
        <mxCell id="xB8ox5cRuTqFbaY90IJn-3" value="BERT Large" style="rounded=1;whiteSpace=wrap;html=1;fontSize=19;fillColor=#fad7ac;strokeColor=#b46504;strokeWidth=3;" vertex="1" parent="1">
          <mxGeometry x="180" y="40" width="120" height="60" as="geometry" />
        </mxCell>
        <mxCell id="xB8ox5cRuTqFbaY90IJn-4" value="RoBERTa Base" style="rounded=1;whiteSpace=wrap;html=1;fontSize=19;fillColor=#b0e3e6;strokeColor=#0e8088;strokeWidth=2;" vertex="1" parent="1">
          <mxGeometry x="310" y="40" width="120" height="60" as="geometry" />
        </mxCell>
        <mxCell id="xB8ox5cRuTqFbaY90IJn-5" value="RoBERTa Large" style="rounded=1;whiteSpace=wrap;html=1;fontSize=19;fillColor=#b0e3e6;strokeColor=#0e8088;strokeWidth=3;" vertex="1" parent="1">
          <mxGeometry x="440" y="40" width="120" height="60" as="geometry" />
        </mxCell>
        <mxCell id="xB8ox5cRuTqFbaY90IJn-6" value="DeBERTa Base" style="rounded=1;whiteSpace=wrap;html=1;fontSize=19;fillColor=#b1ddf0;strokeColor=#10739e;strokeWidth=2;" vertex="1" parent="1">
          <mxGeometry x="570" y="40" width="120" height="60" as="geometry" />
        </mxCell>
        <mxCell id="xB8ox5cRuTqFbaY90IJn-7" value="DeBERTa Large" style="rounded=1;whiteSpace=wrap;html=1;fontSize=19;fillColor=#b1ddf0;strokeColor=#10739e;strokeWidth=3;" vertex="1" parent="1">
          <mxGeometry x="700" y="40" width="120" height="60" as="geometry" />
        </mxCell>
        <mxCell id="xB8ox5cRuTqFbaY90IJn-8" value="Probabilities" style="endArrow=classic;html=1;rounded=0;exitX=0.5;exitY=1;exitDx=0;exitDy=0;entryX=0.032;entryY=-0.039;entryDx=0;entryDy=0;entryPerimeter=0;dashed=1;dashPattern=1 1;fontSize=14;fontColor=#808080;" edge="1" parent="1" target="xB8ox5cRuTqFbaY90IJn-1">
          <mxGeometry x="-0.0005" width="50" height="50" relative="1" as="geometry">
            <mxPoint x="110" y="100.00000000000011" as="sourcePoint" />
            <mxPoint x="320.75" y="202.11000000000013" as="targetPoint" />
            <mxPoint as="offset" />
          </mxGeometry>
        </mxCell>
        <mxCell id="xB8ox5cRuTqFbaY90IJn-9" value="&lt;b style=&quot;font-size: 14px;&quot;&gt;2*(&lt;/b&gt;Probabilities&lt;b style=&quot;font-size: 14px;&quot;&gt;)&lt;/b&gt;" style="endArrow=classic;html=1;rounded=0;exitX=0.5;exitY=1;exitDx=0;exitDy=0;dashed=1;dashPattern=1 1;fontSize=14;fontColor=#808080;" edge="1" parent="1" source="xB8ox5cRuTqFbaY90IJn-7">
          <mxGeometry x="-0.3345" width="50" height="50" relative="1" as="geometry">
            <mxPoint x="863" y="236" as="sourcePoint" />
            <mxPoint x="550" y="191" as="targetPoint" />
            <mxPoint as="offset" />
          </mxGeometry>
        </mxCell>
        <mxCell id="xB8ox5cRuTqFbaY90IJn-10" value="&lt;b style=&quot;font-size: 14px;&quot;&gt;2*(&lt;/b&gt;Probabilities&lt;b style=&quot;font-size: 14px;&quot;&gt;)&lt;/b&gt;" style="endArrow=classic;html=1;rounded=0;exitX=0.5;exitY=1;exitDx=0;exitDy=0;dashed=1;dashPattern=1 1;fontSize=14;fontColor=#808080;entryX=0.25;entryY=0;entryDx=0;entryDy=0;" edge="1" parent="1" target="xB8ox5cRuTqFbaY90IJn-1">
          <mxGeometry x="-0.3664" y="-1" width="50" height="50" relative="1" as="geometry">
            <mxPoint x="240" y="100.00000000000011" as="sourcePoint" />
            <mxPoint x="354" y="201" as="targetPoint" />
            <mxPoint x="1" as="offset" />
          </mxGeometry>
        </mxCell>
        <mxCell id="xB8ox5cRuTqFbaY90IJn-11" value="Probabilities" style="endArrow=classic;html=1;rounded=0;exitX=0.5;exitY=1;exitDx=0;exitDy=0;dashed=1;dashPattern=1 1;fontSize=14;fontColor=#808080;entryX=0.824;entryY=-0.005;entryDx=0;entryDy=0;entryPerimeter=0;" edge="1" parent="1" target="xB8ox5cRuTqFbaY90IJn-1">
          <mxGeometry x="-0.0011" width="50" height="50" relative="1" as="geometry">
            <mxPoint x="633" y="100.00000000000011" as="sourcePoint" />
            <mxPoint x="510" y="190" as="targetPoint" />
            <mxPoint as="offset" />
          </mxGeometry>
        </mxCell>
        <mxCell id="xB8ox5cRuTqFbaY90IJn-12" value="Probabilities" style="endArrow=classic;html=1;rounded=0;exitX=0.5;exitY=1;exitDx=0;exitDy=0;entryX=0.412;entryY=-0.022;entryDx=0;entryDy=0;entryPerimeter=0;dashed=1;dashPattern=1 1;fontSize=14;fontColor=#808080;" edge="1" parent="1" source="xB8ox5cRuTqFbaY90IJn-4" target="xB8ox5cRuTqFbaY90IJn-1">
          <mxGeometry width="50" height="50" relative="1" as="geometry">
            <mxPoint x="260" y="120" as="sourcePoint" />
            <mxPoint x="383" y="220" as="targetPoint" />
          </mxGeometry>
        </mxCell>
        <mxCell id="xB8ox5cRuTqFbaY90IJn-13" value="&lt;b style=&quot;font-size: 14px;&quot;&gt;2*(&lt;/b&gt;Probabilities&lt;b style=&quot;font-size: 14px;&quot;&gt;)&lt;/b&gt;" style="endArrow=classic;html=1;rounded=0;exitX=0.5;exitY=1;exitDx=0;exitDy=0;entryX=0.582;entryY=-0.026;entryDx=0;entryDy=0;entryPerimeter=0;dashed=1;dashPattern=1 1;fontSize=14;fontColor=#808080;" edge="1" parent="1" source="xB8ox5cRuTqFbaY90IJn-5" target="xB8ox5cRuTqFbaY90IJn-1">
          <mxGeometry x="-0.4013" y="5" width="50" height="50" relative="1" as="geometry">
            <mxPoint x="270" y="130" as="sourcePoint" />
            <mxPoint x="460" y="190" as="targetPoint" />
            <mxPoint as="offset" />
          </mxGeometry>
        </mxCell>
        <mxCell id="xB8ox5cRuTqFbaY90IJn-14" value="&lt;div style=&quot;&quot;&gt;&lt;font style=&quot;font-size: 19px;&quot;&gt;Result &amp;gt; 0.2?&lt;/font&gt;&lt;/div&gt;" style="rhombus;whiteSpace=wrap;html=1;fontSize=19;fillColor=#f5f5f5;fontColor=#333333;strokeColor=#666666;labelPosition=center;verticalLabelPosition=middle;align=center;verticalAlign=middle;" vertex="1" parent="1">
          <mxGeometry x="340" y="280" width="180" height="90" as="geometry" />
        </mxCell>
        <mxCell id="xB8ox5cRuTqFbaY90IJn-15" value="" style="endArrow=classic;html=1;rounded=0;exitX=0.5;exitY=1;exitDx=0;exitDy=0;entryX=0.5;entryY=0;entryDx=0;entryDy=0;" edge="1" parent="1" source="xB8ox5cRuTqFbaY90IJn-1" target="xB8ox5cRuTqFbaY90IJn-14">
          <mxGeometry width="50" height="50" relative="1" as="geometry">
            <mxPoint x="430" y="190" as="sourcePoint" />
            <mxPoint x="500" y="270" as="targetPoint" />
          </mxGeometry>
        </mxCell>
        <mxCell id="xB8ox5cRuTqFbaY90IJn-16" value="&lt;font style=&quot;font-size: 21px;&quot;&gt;1&lt;/font&gt;" style="rounded=0;whiteSpace=wrap;html=1;fillColor=#bac8d3;strokeColor=#23445d;fontSize=21;" vertex="1" parent="1">
          <mxGeometry x="345" y="410" width="35" height="40" as="geometry" />
        </mxCell>
        <mxCell id="xB8ox5cRuTqFbaY90IJn-17" value="&lt;font style=&quot;font-size: 21px;&quot;&gt;0&lt;/font&gt;" style="rounded=0;whiteSpace=wrap;html=1;fillColor=#bac8d3;strokeColor=#23445d;fontSize=21;" vertex="1" parent="1">
          <mxGeometry x="470" y="410" width="35" height="40" as="geometry" />
        </mxCell>
        <mxCell id="xB8ox5cRuTqFbaY90IJn-18" value="yes" style="endArrow=classic;html=1;rounded=0;exitX=0.5;exitY=1;exitDx=0;exitDy=0;entryX=0.5;entryY=0;entryDx=0;entryDy=0;fontSize=15;" edge="1" parent="1" source="xB8ox5cRuTqFbaY90IJn-14" target="xB8ox5cRuTqFbaY90IJn-16">
          <mxGeometry width="50" height="50" relative="1" as="geometry">
            <mxPoint x="430" y="250" as="sourcePoint" />
            <mxPoint x="370" y="380" as="targetPoint" />
          </mxGeometry>
        </mxCell>
        <mxCell id="xB8ox5cRuTqFbaY90IJn-19" value="no" style="endArrow=classic;html=1;rounded=0;entryX=0.5;entryY=0;entryDx=0;entryDy=0;fontSize=15;" edge="1" parent="1" target="xB8ox5cRuTqFbaY90IJn-17">
          <mxGeometry width="50" height="50" relative="1" as="geometry">
            <mxPoint x="430" y="370" as="sourcePoint" />
            <mxPoint x="380" y="390" as="targetPoint" />
          </mxGeometry>
        </mxCell>
      </root>
    </mxGraphModel>
  </diagram>
</mxfile>
